<svg xmlns="http://www.w3.org/2000/svg" viewBox="0 0 800 600">
  <defs>
    <linearGradient id="bg" x1="0" y1="0" x2="1" y2="1"><stop offset="0%" stop-color="#E8F0FE"/><stop offset="100%" stop-color="#DBEAFE"/></linearGradient>
  </defs>
  <rect width="800" height="600" rx="20" fill="url(#bg)"/>
  <rect x="100" y="200" width="250" height="300" rx="12" fill="#2563EB" opacity="0.15"/>
  <rect x="120" y="220" width="210" height="160" rx="8" fill="#fff"/>
  <rect x="140" y="240" width="170" height="10" rx="3" fill="#CBD5E1"/>
  <rect x="140" y="260" width="130" height="10" rx="3" fill="#CBD5E1"/>
  <rect x="140" y="280" width="150" height="10" rx="3" fill="#CBD5E1"/>
  <rect x="140" y="310" width="80" height="30" rx="15" fill="#2563EB"/>
  <circle cx="225" cy="160" r="50" fill="#2563EB" opacity="0.2"/>
  <circle cx="225" cy="150" r="20" fill="#1B2A4A" opacity="0.3"/>
  <rect x="205" y="175" width="40" height="35" rx="8" fill="#1B2A4A" opacity="0.3"/>
  <rect x="450" y="150" width="250" height="320" rx="12" fill="#F59E0B" opacity="0.1"/>
  <rect x="470" y="180" width="210" height="140" rx="8" fill="#fff"/>
  <rect x="490" y="200" width="60" height="60" rx="8" fill="#DBEAFE"/>
  <rect x="560" y="200" width="100" height="10" rx="3" fill="#CBD5E1"/>
  <rect x="560" y="220" width="80" height="10" rx="3" fill="#CBD5E1"/>
  <rect x="560" y="240" width="90" height="10" rx="3" fill="#CBD5E1"/>
  <circle cx="575" cy="110" r="45" fill="#F59E0B" opacity="0.15"/>
  <circle cx="575" cy="100" r="18" fill="#1B2A4A" opacity="0.25"/>
  <rect x="557" y="122" width="36" height="30" rx="8" fill="#1B2A4A" opacity="0.25"/>
  <text x="400" y="530" text-anchor="middle" font-family="'Noto Sans JP',sans-serif" font-size="14" fill="#94A3B8">教室の様子</text>
</svg>